PathFileType	4	(X/Y/Z)	E1.trc
DataRate	CameraRate	NumFrames	NumMarkers	Units	OrigDataRate	OrigDataStartFrame	OrigNumFrames
60.0	60.0	15	23	m	60.0	1	2190
Frame#	Time	NOSE	LEFT_EAR	RIGHT_EAR	LEFT_SHOULDER	RIGHT_SHOULDER	LEFT_ELBOW	RIGHT_ELBOW	LEFT_WRIST	RIGHT_WRIST	LEFT_INDEX	RIGHT_INDEX	LEFT_THUMB	RIGHT_THUMB	LEFT_HIP	RIGHT_HIP	LEFT_KNEE	RIGHT_KNEE	LEFT_ANKLE	RIGHT_ANKLE	LEFT_HEEL	RIGHT_HEEL	LEFT_FOOT_INDEX	RIGHT_FOOT_INDEX
		X1	Y1	Z1	X2	Y2	Z2	X3	Y3	Z3	X4	Y4	Z4	X5	Y5	Z5	X6	Y6	Z6	X7	Y7	Z7	X8	Y8	Z8	X9	Y9	Z9	X10	Y10	Z10	X11	Y11	Z11	X12	Y12	Z12	X13	Y13	Z13	X14	Y14	Z14	X15	Y15	Z15	X16	Y16	Z16	X17	Y17	Z17	X18	Y18	Z18	X19	Y19	Z19	X20	Y20	Z20	X21	Y21	Z21	X22	Y22	Z22	X23	Y23	Z23
1	0.000000	0.158698	1.700261	0.473951	0.187085	1.715029	0.385694	0.086925	1.717591	0.419521	0.276005	1.500452	0.309782	-0.065580	1.503109	0.415643	0.455373	1.249701	0.337004	-0.122905	1.177980	0.427002	0.439530	1.289560	0.573102	-0.077753	0.913950	0.541923	0.430407	1.329119	0.629353	-0.048561	0.848986	0.576185	0.422365	1.322178	0.610606	-0.040997	0.873539	0.565446	0.240359	0.935271	0.315125	0.026934	0.931530	0.375576	0.317116	0.530765	0.381407	0.001454	0.503016	0.356555	0.267252	0.112526	0.271629	0.003983	0.080394	0.299388	0.243000	0.045660	0.231744	0.009447	0.014007	0.238177	0.363680	0.015021	0.386670	0.008889	-0.006031	0.461835
2	0.016667	0.157609	1.699577	0.473440	0.186461	1.715132	0.385671	0.086060	1.717414	0.420039	0.275897	1.500798	0.307256	-0.068324	1.501397	0.404517	0.450746	1.251844	0.339460	-0.122505	1.178607	0.425471	0.436391	1.295091	0.574421	-0.076720	0.913871	0.541587	0.423731	1.336583	0.630183	-0.047544	0.849601	0.575911	0.415676	1.329766	0.612646	-0.039706	0.873428	0.565046	0.240543	0.936020	0.316499	0.026393	0.931353	0.374421	0.321682	0.534043	0.387274	-0.000907	0.504449	0.356643	0.271969	0.116183	0.275552	-0.000171	0.084674	0.299631	0.249989	0.050443	0.233336	0.006324	0.019753	0.241173	0.368547	0.021964	0.386038	0.004385	-0.002932	0.460859
3	0.033333	0.156897	1.698895	0.473757	0.185981	1.715091	0.385759	0.085509	1.717400	0.420346	0.273867	1.501141	0.305697	-0.068534	1.500146	0.400812	0.448892	1.254532	0.345048	-0.122056	1.178428	0.423512	0.433712	1.300387	0.575861	-0.075977	0.914153	0.541356	0.421655	1.339195	0.633560	-0.046936	0.849666	0.575678	0.411171	1.335545	0.612773	-0.039319	0.873385	0.565060	0.240370	0.935795	0.317845	0.026600	0.930507	0.374845	0.324793	0.535354	0.393136	-0.002203	0.504539	0.356026	0.275796	0.116760	0.275525	-0.000385	0.084894	0.299689	0.255702	0.051204	0.231919	0.006191	0.020724	0.241368	0.375132	0.023859	0.383588	0.003959	-0.000964	0.462278
4	0.050000	0.155607	1.698544	0.473747	0.185047	1.715197	0.386023	0.084726	1.717275	0.420163	0.273119	1.501342	0.305476	-0.068175	1.499353	0.390357	0.448455	1.257169	0.347461	-0.122659	1.178391	0.422515	0.427409	1.308345	0.579554	-0.076145	0.914666	0.541394	0.413879	1.349240	0.636379	-0.046744	0.849727	0.575891	0.405556	1.341995	0.620922	-0.039151	0.873606	0.565508	0.240483	0.935037	0.319315	0.026523	0.929303	0.373183	0.329404	0.537031	0.396665	-0.003259	0.503968	0.354310	0.284327	0.118589	0.274020	-0.000943	0.085328	0.299889	0.265231	0.052863	0.229715	0.005979	0.021728	0.242200	0.378219	0.023864	0.384069	0.002458	0.000392	0.462512
5	0.066667	0.153693	1.697366	0.473420	0.184318	1.714819	0.386545	0.083192	1.717012	0.420254	0.272536	1.502284	0.304709	-0.068700	1.498682	0.387137	0.448667	1.260600	0.360052	-0.122900	1.176932	0.421529	0.423525	1.317452	0.581050	-0.075789	0.914623	0.541543	0.408166	1.365140	0.635952	-0.046327	0.849494	0.576143	0.400394	1.356404	0.621036	-0.038496	0.873468	0.565846	0.240655	0.934524	0.320951	0.026058	0.927984	0.372015	0.336817	0.538576	0.398920	-0.004153	0.502161	0.353786	0.295675	0.120749	0.270897	-0.001510	0.085190	0.300050	0.276918	0.054727	0.225400	0.005972	0.021940	0.242554	0.380833	0.025364	0.383272	0.003037	0.001166	0.465299
6	0.083333	0.152546	1.696429	0.474068	0.182994	1.714637	0.386920	0.082440	1.716573	0.420365	0.272230	1.502461	0.304191	-0.068832	1.498245	0.381179	0.452138	1.262475	0.363872	-0.123207	1.176245	0.421295	0.416306	1.328962	0.583736	-0.075839	0.914479	0.541586	0.399644	1.380947	0.635961	-0.046226	0.849096	0.576217	0.391734	1.369313	0.620762	-0.038469	0.873006	0.565942	0.240910	0.934159	0.322766	0.025639	0.927232	0.368762	0.345856	0.540499	0.401091	-0.005278	0.502260	0.350409	0.307771	0.122883	0.267117	-0.002017	0.084871	0.299821	0.290518	0.055627	0.218184	0.005995	0.021913	0.241896	0.385225	0.026182	0.382467	0.002005	0.001580	0.465788
7	0.100000	0.152040	1.695816	0.473951	0.181869	1.714518	0.386979	0.082049	1.716380	0.420075	0.271898	1.502607	0.304169	-0.069121	1.497713	0.379933	0.455277	1.264343	0.371484	-0.124165	1.175292	0.420109	0.411209	1.340513	0.583881	-0.075983	0.913215	0.541646	0.388633	1.398639	0.633752	-0.046167	0.848437	0.576084	0.382724	1.383033	0.618394	-0.038536	0.872364	0.566028	0.241316	0.934130	0.323705	0.025704	0.926951	0.367219	0.353911	0.539622	0.400278	-0.005890	0.502005	0.348516	0.320758	0.123579	0.262781	-0.002471	0.085280	0.300537	0.304467	0.055755	0.213224	0.005558	0.022236	0.242270	0.395047	0.027256	0.385926	0.000990	0.002053	0.466610
8	0.116667	0.151797	1.695235	0.473129	0.181305	1.714313	0.386573	0.081695	1.716124	0.419670	0.272538	1.502929	0.303227	-0.069737	1.497344	0.374308	0.460957	1.266296	0.378823	-0.124479	1.174551	0.419385	0.406243	1.350911	0.581698	-0.076281	0.912774	0.541717	0.381029	1.410794	0.631947	-0.046359	0.847811	0.576005	0.375594	1.395314	0.615803	-0.038668	0.871823	0.565986	0.242481	0.933554	0.325593	0.025337	0.926403	0.363919	0.362942	0.539631	0.402935	-0.006223	0.501053	0.346311	0.337463	0.126019	0.258507	-0.003003	0.085028	0.300954	0.320758	0.056973	0.208185	0.005389	0.021777	0.242135	0.405679	0.023330	0.381668	0.000078	0.002174	0.466929
9	0.133333	0.152284	1.694796	0.472929	0.181510	1.714170	0.386077	0.081713	1.715831	0.419382	0.273400	1.503640	0.302479	-0.069501	1.497228	0.375121	0.465691	1.268466	0.387609	-0.125419	1.173540	0.417630	0.401072	1.361738	0.579090	-0.076778	0.911556	0.541820	0.374182	1.423409	0.627969	-0.046801	0.846645	0.576075	0.368668	1.410053	0.611548	-0.039117	0.870481	0.565975	0.244526	0.933768	0.326222	0.026267	0.926101	0.362969	0.369672	0.538476	0.402212	-0.005789	0.501417	0.344622	0.354324	0.125125	0.256120	-0.006902	0.088737	0.279656	0.337407	0.055094	0.203635	0.005684	0.022479	0.241074	0.418927	0.020718	0.379660	-0.000836	0.002261	0.466568
10	0.150000	0.153714	1.693905	0.471908	0.181704	1.713784	0.385811	0.082319	1.715384	0.418732	0.273513	1.504209	0.301725	-0.070013	1.496838	0.373682	0.467830	1.271730	0.394356	-0.125175	1.172968	0.417186	0.392075	1.371471	0.584133	-0.077583	0.910221	0.541832	0.367875	1.435028	0.629825	-0.047793	0.844782	0.575061	0.362904	1.421113	0.613603	-0.039833	0.868990	0.565159	0.246093	0.933530	0.326801	0.027036	0.925579	0.360009	0.375482	0.537899	0.399963	-0.005471	0.500698	0.342217	0.369382	0.124008	0.252638	-0.007009	0.087825	0.278723	0.352967	0.054168	0.199608	0.005733	0.021653	0.240439	0.433284	0.020861	0.376971	-0.002322	0.002058	0.466338
11	0.166667	0.155159	1.693415	0.470143	0.182196	1.713426	0.384407	0.082958	1.715124	0.417266	0.275060	1.504378	0.301137	-0.069177	1.496608	0.373538	0.470294	1.275221	0.400864	-0.124985	1.172280	0.416927	0.382367	1.382166	0.586191	-0.079288	0.909255	0.542233	0.356801	1.446246	0.630405	-0.049633	0.843167	0.574504	0.352155	1.432247	0.613687	-0.041628	0.866889	0.563905	0.247792	0.933430	0.327487	0.027883	0.925234	0.359366	0.378492	0.538113	0.397157	-0.004928	0.500147	0.340657	0.383308	0.123032	0.249799	-0.007026	0.087706	0.278754	0.367410	0.051003	0.197818	0.005823	0.021473	0.240372	0.446869	0.020232	0.376197	-0.002434	0.002281	0.466284
12	0.183333	0.157485	1.692558	0.468213	0.183324	1.713007	0.383021	0.085032	1.714653	0.415830	0.276801	1.504066	0.299668	-0.068545	1.496345	0.372697	0.474391	1.276037	0.409984	-0.126142	1.172093	0.416294	0.379352	1.391267	0.586193	-0.088211	0.912797	0.547596	0.353019	1.457508	0.630059	-0.051989	0.842454	0.574192	0.348317	1.441154	0.612660	-0.043540	0.866456	0.564003	0.249606	0.932994	0.326332	0.028843	0.924947	0.358032	0.381937	0.536969	0.392319	-0.003961	0.499784	0.338405	0.396752	0.119799	0.248985	-0.006757	0.086582	0.278302	0.382053	0.048106	0.197800	0.006248	0.020736	0.240376	0.458859	0.022493	0.380017	-0.002542	0.002289	0.467310
13	0.200000	0.158792	1.691738	0.466429	0.184813	1.712643	0.380717	0.085978	1.714271	0.414689	0.280469	1.504324	0.295531	-0.066939	1.495870	0.371251	0.480882	1.277956	0.420013	-0.125827	1.171580	0.415271	0.375948	1.401590	0.585010	-0.089900	0.912264	0.547702	0.345220	1.468591	0.624370	-0.054196	0.841374	0.573079	0.340664	1.451705	0.606424	-0.045413	0.865576	0.561930	0.252101	0.932373	0.324824	0.029958	0.924703	0.356913	0.384722	0.536033	0.387528	-0.002871	0.499786	0.337372	0.410842	0.115797	0.250596	-0.006629	0.085757	0.278320	0.394644	0.044746	0.200669	0.006415	0.020111	0.240179	0.473202	0.020819	0.379496	-0.002745	0.002855	0.467889
14	0.216667	0.161635	1.690772	0.463120	0.186657	1.712039	0.377284	0.087901	1.713711	0.413026	0.282425	1.504134	0.293756	-0.064513	1.495883	0.369860	0.482670	1.284238	0.429813	-0.125062	1.171945	0.414130	0.369854	1.407808	0.581908	-0.091200	0.912166	0.547379	0.336120	1.474918	0.619905	-0.056674	0.840886	0.572281	0.332030	1.457774	0.601524	-0.047046	0.864980	0.560777	0.255078	0.931601	0.324297	0.032435	0.924052	0.356019	0.386186	0.532586	0.383495	-0.001782	0.500599	0.340436	0.421967	0.112681	0.252201	-0.006765	0.085807	0.278300	0.408399	0.041889	0.202128	0.006195	0.020740	0.240097	0.490348	0.022165	0.389409	-0.003439	0.003286	0.467340
15	0.233333	0.164141	1.690171	0.461293	0.188503	1.711361	0.374672	0.089871	1.713251	0.411555	0.285461	1.504146	0.291850	-0.061641	1.495301	0.369606	0.483816	1.287677	0.441414	-0.123390	1.172225	0.413386	0.368167	1.412770	0.582650	-0.092856	0.911617	0.546767	0.331339	1.482376	0.616412	-0.059779	0.839739	0.570632	0.328153	1.463728	0.598514	-0.049333	0.864148	0.559326	0.258069	0.930654	0.322712	0.035266	0.923565	0.354631	0.388547	0.529512	0.377320	0.000253	0.501097	0.340077	0.430620	0.107952	0.252065	-0.006752	0.084298	0.278733	0.416433	0.036880	0.201970	0.005850	0.019874	0.240668	0.496320	0.020908	0.388314	-0.006899	-0.001895	0.461319
